<svg width="58" height="60" viewBox="0 0 58 60" fill="none" xmlns="http://www.w3.org/2000/svg">
<path d="M17.1105 57.4585C12.2749 55.2063 8.14729 51.4087 5.24972 46.5458C2.35215 41.6829 0.814743 35.9732 0.831908 30.1387C0.849076 24.3042 2.42005 18.6069 5.34616 13.7674C8.27228 8.92782 12.4221 5.16334 17.2709 2.94997L18.6372 6.65675C14.4469 8.56954 10.8607 11.8228 8.33192 16.0051C5.80318 20.1874 4.44556 25.111 4.43072 30.1531C4.41589 35.1953 5.74451 40.1296 8.24858 44.3321C10.7526 48.5345 14.3197 51.8164 18.4986 53.7627L17.1105 57.4585Z" fill="#8A0E0E"/>
<path d="M29.4378 50.2445C25.7531 48.5284 22.608 45.6347 20.4002 41.9294C18.1923 38.224 17.0208 33.8734 17.0339 29.4276C17.047 24.9819 18.244 20.6407 20.4736 16.9531C22.7033 13.2655 25.8653 10.3971 29.56 8.71059L30.6639 11.7055C27.5013 13.1491 24.7945 15.6045 22.886 18.7611C20.9774 21.9177 19.9528 25.6337 19.9416 29.4393C19.9304 33.2448 20.9331 36.969 22.8231 40.1408C24.713 43.3126 27.4052 45.7896 30.5593 47.2585L29.4378 50.2445Z" fill="#8A0E0E"/>
<path d="M38.7737 45.6698C36.7705 44.3718 35.0603 42.1841 33.8591 39.3834C32.6579 36.5826 32.0199 33.2946 32.0256 29.9351C32.0313 26.5756 32.6805 23.2954 33.8911 20.5095C35.1017 17.7236 36.8193 15.557 38.8268 14.2838L39.6192 17.2684C37.9929 18.2999 36.6014 20.0551 35.6206 22.3121C34.6399 24.569 34.1139 27.2263 34.1093 29.9479C34.1047 32.6695 34.6217 35.3332 35.5947 37.6022C36.5678 39.8712 37.9534 41.6435 39.5762 42.695L38.7737 45.6698Z" fill="#8A0E0E"/>
</svg>
