<svg width="77" height="14" viewBox="0 0 77 14" fill="none" xmlns="http://www.w3.org/2000/svg">
<path d="M7 0L8.5716 4.83688H13.6574L9.5429 7.82624L11.1145 12.6631L7 9.67376L2.8855 12.6631L4.4571 7.82624L0.342604 4.83688H5.4284L7 0Z" fill="#EFE26D"/>
<path d="M28 0L29.5716 4.83688H34.6574L30.5429 7.82624L32.1145 12.6631L28 9.67376L23.8855 12.6631L25.4571 7.82624L21.3426 4.83688H26.4284L28 0Z" fill="#EFE26D"/>
<path d="M49 0L50.5716 4.83688H55.6574L51.5429 7.82624L53.1145 12.6631L49 9.67376L44.8855 12.6631L46.4571 7.82624L42.3426 4.83688H47.4284L49 0Z" fill="#EFE26D"/>
<path d="M70 0L71.5716 4.83688H76.6574L72.5429 7.82624L74.1145 12.6631L70 9.67376L65.8855 12.6631L67.4571 7.82624L63.3426 4.83688H68.4284L70 0Z" fill="#EFE26D"/>
</svg>
