<svg width="266" height="38" viewBox="0 0 266 38" fill="none" xmlns="http://www.w3.org/2000/svg">
<path d="M19 1.61804L22.7902 13.2832L22.9025 13.6287H23.2658H35.5312L25.6083 20.8381L25.3144 21.0517L25.4266 21.3972L29.2169 33.0623L19.2939 25.8528L19 25.6393L18.7061 25.8528L8.78314 33.0623L12.5734 21.3972L12.6856 21.0517L12.3917 20.8381L2.46877 13.6287H14.7342H15.0975L15.2098 13.2832L19 1.61804Z" fill="#EFE26D" stroke="black"/>
<path d="M76 1.61804L79.7902 13.2832L79.9025 13.6287H80.2658H92.5312L82.6083 20.8381L82.3144 21.0517L82.4266 21.3972L86.2169 33.0623L76.2939 25.8528L76 25.6393L75.7061 25.8528L65.7831 33.0623L69.5734 21.3972L69.6856 21.0517L69.3917 20.8381L59.4688 13.6287H71.7342H72.0975L72.2098 13.2832L76 1.61804Z" fill="#EFE26D" stroke="black"/>
<path d="M133 1.61804L136.79 13.2832L136.902 13.6287H137.266H149.531L139.608 20.8381L139.314 21.0517L139.427 21.3972L143.217 33.0623L133.294 25.8528L133 25.6393L132.706 25.8528L122.783 33.0623L126.573 21.3972L126.686 21.0517L126.392 20.8381L116.469 13.6287H128.734H129.098L129.21 13.2832L133 1.61804Z" fill="#EFE26D" stroke="black"/>
<path d="M247 1.61804L250.79 13.2832L250.902 13.6287H251.266H263.531L253.608 20.8381L253.314 21.0517L253.427 21.3972L257.217 33.0623L247.294 25.8528L247 25.6393L246.706 25.8528L236.783 33.0623L240.573 21.3972L240.686 21.0517L240.392 20.8381L230.469 13.6287H242.734H243.098L243.21 13.2832L247 1.61804Z" fill="white" stroke="black"/>
<path d="M190 1.61804L193.79 13.2832L193.902 13.6287H194.266H206.531L196.608 20.8381L196.314 21.0517L196.427 21.3972L200.217 33.0623L190.294 25.8528L190 25.6393L189.706 25.8528L179.783 33.0623L183.573 21.3972L183.686 21.0517L183.392 20.8381L173.469 13.6287H185.734H186.098L186.21 13.2832L190 1.61804Z" fill="#EFE26D" stroke="black"/>
</svg>
